# xmcd
#
# Track frame offsets:
#	150
#	16802
#	30539
#	43412
#	64229
#	82107
#	107059
#	134439
#	158834
#	171776
#	190521
#	215919
#	238217
#	252441
#
# Disc length: 3596 seconds
#
# Revision: 1
# Processed by: cddbd v1.5.2PL0 Copyright (c) Steve Scherf et al.
# Submitted via: EasyCDDAExtractor 16.0.8.1
#
DISCID=c90e0a0e
DTITLE=Stevie Cochran - The Next Stage
DYEAR=2010
DGENRE=Blues
TTITLE0=Heckle And Jeckle
TTITLE1=Next Stage
TTITLE2=Don't Need You No More
TTITLE3=Waiting With You
TTITLE4=The Bad Road
TTITLE5=Three Thursdays
TTITLE6=My Love Is Alright
TTITLE7=Between The Lines
TTITLE8=Sweet And Evil
TTITLE9=Testify
TTITLE10=Ill Get Along
TTITLE11=Hard To Say
TTITLE12=Anywhere Town
TTITLE13=Fix It Man
EXTD=
EXTT0=
EXTT1=
EXTT2=
EXTT3=
EXTT4=
EXTT5=
EXTT6=
EXTT7=
EXTT8=
EXTT9=
EXTT10=
EXTT11=
EXTT12=
EXTT13=
PLAYORDER=
